<?xml version="1.0" standalone="no"?>
<svg version="1.0" xmlns="http://www.w3.org/2000/svg"
 width="100" height="100" viewBox="810 440 780 780"
 preserveAspectRatio="xMidYMid meet">
<g transform="translate(0.000000,1617.000000) scale(0.100000,-0.100000)"
fill="#ffffff" stroke="none">
<path d="M12947 10725 c91 -48 143 -130 143 -224 0 -121 -55 -205 -167 -255 -35
-15 -55 -18 -110 -12 -38 4 -69 11 -71 16 -2 6 -11 10 -21 10 -9 0 -22 5 -28
11 -12 12 -106 -81 -805 -794 -234 -238 -284 -294 -273 -303 8 -6 15 -25 15
-42 0 -17 5 -34 10 -37 6 -3 10 -19 10 -36 0 -16 -4 -29 -10 -29 -5 0 -10 -11
-10 -24 0 -35 -66 -116 -101 -123 -16 -3 -32 -10 -35 -14 -7 -12 -101 -11
-109 1 -17 28 -54 7 -128 -72 -41 -46 -119 -128 -171 -182 -53 -55 -96 -105
-96 -111 0 -7 19 -30 43 -52 57 -54 501 -512 524 -541 15 -19 24 -22 46 -17
15 4 27 11 27 16 0 12 117 11 125 -1 3 -5 14 -10 24 -10 23 0 101 -86 101
-110 0 -11 5 -22 10 -25 15 -9 12 -101 -5 -142 l-15 -35 153 -155 c83 -85 206
-209 271 -276 66 -67 220 -224 343 -348 l223 -226 52 18 c29 10 74 18 100 19
94 0 216 -79 233 -152 4 -15 11 -30 16 -33 5 -4 9 -33 9 -65 0 -161 -109 -270
-269 -270 -39 0 -73 5 -76 10 -3 6 -15 10 -26 10 -38 0 -117 95 -143 173 -5
16 -37 17 -476 17 l-471 0 -16 -37 c-8 -21 -18 -40 -22 -43 -3 -3 -12 -17 -20
-33 -8 -15 -37 -42 -65 -59 -45 -29 -59 -32 -126 -33 -84 0 -144 22 -193 71
-40 40 -77 127 -77 181 0 37 30 136 43 141 20 9 -7 43 -175 214 -101 102 -318
324 -483 493 l-301 306 -29 -15 c-48 -25 -154 -21 -209 8 -75 40 -136 115
-136 168 0 17 -11 18 -170 18 l-170 0 -6 -40 c-4 -21 -15 -47 -25 -56 -11 -9
-19 -22 -19 -27 0 -23 -87 -81 -135 -89 -19 -3 -20 -12 -20 -427 l-1 -423 26
-9 c114 -41 180 -134 180 -253 0 -103 -39 -174 -126 -229 -72 -45 -188 -45
-264 2 -75 45 -129 139 -130 226 0 104 81 218 174 246 l46 13 -2 425 -3 425
-35 11 c-60 18 -120 58 -120 82 0 6 -6 16 -14 20 -15 9 -31 57 -41 120 -17
107 77 240 188 267 l27 6 -2 448 -3 447 -25 4 c-14 1 -27 6 -30 10 -3 3 -21
15 -40 25 -65 33 -110 123 -110 217 0 124 64 215 178 254 20 7 37 18 36 24 -1
6 -2 189 -2 406 -2 355 -4 395 -18 395 -20 0 -84 30 -102 47 -7 7 -21 18 -30
25 -21 16 -42 52 -42 72 0 8 -5 16 -11 18 -7 2 -12 34 -13 83 -1 95 22 153 84
209 53 47 70 55 139 62 84 9 152 -15 210 -72 96 -96 107 -199 36 -334 -17 -33
-101 -97 -136 -104 l-29 -5 0 -408 0 -408 40 -13 c48 -14 113 -59 128 -87 42
-78 52 -111 52 -169 0 -112 -71 -210 -179 -246 l-41 -13 0 -442 0 -443 28 -5
c20 -5 31 -1 42 14 16 21 134 170 166 208 10 13 73 87 140 165 66 77 128 150
137 161 89 110 238 287 264 315 31 34 32 34 15 65 -9 16 -21 33 -26 36 -15 12
-12 153 4 185 22 45 98 114 125 114 13 0 27 5 30 10 9 15 56 12 105 -5 52 -18
65 -19 82 -1 7 7 240 244 518 526 278 282 511 520 519 528 12 11 12 18 3 33
-7 10 -12 30 -12 43 0 14 -4 28 -10 31 -19 12 -11 122 12 173 24 52 88 122
112 122 9 0 16 5 16 10 0 6 13 10 29 10 17 0 33 5 36 10 3 6 19 10 34 10 35 0
151 -39 151 -51 0 -5 5 -9 10 -9 24 0 80 -78 90 -125 l6 -30 248 0 247 0 18
51 c23 69 56 107 121 143 75 40 167 43 237 6z"/>
<path d="M12079 10438 c0 -2 -3 -16 -5 -32 -8 -47 -85 -146 -114 -146 -6 0
-10 -4 -10 -8 0 -15 -71 -34 -134 -34 -40 0 -77 6 -100 17 l-37 18 -227 -230
c-125 -126 -366 -371 -535 -542 l-308 -313 18 -36 c24 -49 24 -145 1 -191 -10
-19 -18 -39 -18 -45 0 -6 8 -19 18 -27 9 -9 80 -80 156 -159 l140 -143 29 34
c17 19 94 101 171 183 117 124 140 153 138 175 -2 14 -8 31 -14 38 -16 19 -5
122 17 168 11 22 39 53 63 70 38 26 52 30 105 29 34 0 71 -4 82 -8 17 -6 48
21 191 166 94 95 335 339 535 541 200 203 366 370 368 373 2 2 -1 14 -7 27 -6
12 -16 34 -22 50 l-10 27 -245 0 c-135 0 -245 -1 -246 -2z"/>
<path d="M10310 8823 c0 -5 -21 -30 -45 -56 -25 -26 -57 -65 -72 -85 -15 -20
-30 -39 -33 -42 -3 -3 -16 -18 -29 -35 -12 -16 -39 -48 -60 -70 -20 -22 -43
-49 -51 -61 -8 -12 -33 -41 -55 -66 -22 -25 -56 -64 -75 -88 -19 -24 -46 -55
-60 -70 -14 -15 -40 -45 -58 -68 -19 -23 -41 -50 -50 -61 -10 -10 -31 -36 -49
-58 -18 -21 -48 -56 -68 -78 -19 -22 -35 -43 -35 -48 0 -4 9 -18 21 -30 31
-32 69 -94 69 -112 0 -13 24 -15 165 -15 149 0 166 2 171 18 31 97 86 157 171
188 50 17 74 17 141 -2 l55 -16 36 40 c20 22 90 97 157 168 66 71 142 154 170
184 27 30 60 66 74 80 68 69 77 47 -100 228 -101 103 -167 162 -180 162 -11 0
-20 -4 -20 -10 0 -6 -31 -10 -74 -10 -41 0 -78 5 -81 10 -7 12 -35 14 -35 3z"/>
<path d="M10908 8431 c-3 -10 -39 -49 -272 -295 -83 -88 -163 -173 -178 -189
-18 -19 -25 -34 -19 -41 21 -26 51 -88 51 -106 0 -10 5 -22 10 -25 6 -3 10
-18 10 -32 0 -43 -41 -156 -61 -168 -6 -4 -1 -16 13 -29 38 -36 768 -783 859
-879 l84 -88 59 21 c63 21 125 26 154 11 9 -5 31 -15 48 -21 54 -20 134 -121
134 -170 0 -20 9 -20 480 -20 l480 0 0 26 c0 15 9 42 21 60 l20 34 -141 142
c-78 79 -302 306 -498 505 -197 200 -362 363 -369 363 -6 0 -18 -7 -27 -15
-20 -20 -106 -19 -151 2 -19 9 -35 20 -35 25 0 4 -6 8 -12 8 -15 1 -58 65 -58
85 0 8 -4 17 -10 20 -12 7 -13 112 -2 117 5 2 12 15 16 30 7 29 28 5 -424 469
-58 59 -116 121 -130 138 -25 30 -45 39 -52 22z"/>
</g>
</svg>